<svg xmlns="http://www.w3.org/2000/svg" xmlns:xlink="http://www.w3.org/1999/xlink" width="500" zoomAndPan="magnify" viewBox="0 0 375 374.999991" height="500" preserveAspectRatio="xMidYMid meet" version="1.0"><defs><g/></defs><g fill="#face00" fill-opacity="1"><g transform="translate(31.899597, 204.411783)"><g><path d="M 10.5 -27.234375 L 20.4375 -27.234375 L 20.4375 -20.234375 L 10.5 -20.234375 L 10.5 0 L 2.796875 0 L 2.796875 -49 L 23.171875 -49 L 23.171875 -42 L 10.5 -42 Z M 10.5 -27.234375 "/></g></g></g><g fill="#face00" fill-opacity="1"><g transform="translate(55.978285, 204.411783)"><g><path d="M 10.5 -28.34375 L 21.0625 -28.34375 L 21.0625 -21.34375 L 10.5 -21.34375 L 10.5 -7 L 23.796875 -7 L 23.796875 0 L 2.796875 0 L 2.796875 -49 L 23.796875 -49 L 23.796875 -42 L 10.5 -42 Z M 10.5 -28.34375 "/></g></g></g><g fill="#face00" fill-opacity="1"><g transform="translate(81.736874, 204.411783)"><g><path d="M 10.5 -28.34375 L 21.0625 -28.34375 L 21.0625 -21.34375 L 10.5 -21.34375 L 10.5 -7 L 23.796875 -7 L 23.796875 0 L 2.796875 0 L 2.796875 -49 L 23.796875 -49 L 23.796875 -42 L 10.5 -42 Z M 10.5 -28.34375 "/></g></g></g><g fill="#face00" fill-opacity="1"><g transform="translate(107.495463, 204.411783)"><g><path d="M 2.796875 -49 L 14.984375 -49 C 18.859375 -49 21.738281 -47.972656 23.625 -45.921875 C 25.507812 -43.867188 26.453125 -40.859375 26.453125 -36.890625 L 26.453125 -12.109375 C 26.453125 -8.140625 25.507812 -5.128906 23.625 -3.078125 C 21.738281 -1.023438 18.859375 0 14.984375 0 L 2.796875 0 Z M 10.5 -42 L 10.5 -7 L 14.84375 -7 C 16.050781 -7 17.003906 -7.347656 17.703125 -8.046875 C 18.410156 -8.742188 18.765625 -9.984375 18.765625 -11.765625 L 18.765625 -37.234375 C 18.765625 -39.015625 18.410156 -40.253906 17.703125 -40.953125 C 17.003906 -41.648438 16.050781 -42 14.84375 -42 Z M 10.5 -42 "/></g></g></g><g fill="#000000" fill-opacity="1"><g transform="translate(143.991441, 204.072086)"><g><path d="M 19.09375 -14.203125 L 24.34375 -48.984375 L 35.046875 -48.984375 L 35.046875 0 L 27.78125 0 L 27.78125 -35.125 L 22.453125 0 L 15.1875 0 L 9.453125 -34.640625 L 9.453125 0 L 2.734375 0 L 2.734375 -48.984375 L 13.4375 -48.984375 Z M 19.09375 -14.203125 "/></g></g></g><g fill="#000000" fill-opacity="1"><g transform="translate(181.838073, 204.072086)"><g><path d="M 27.703125 0 L 19.9375 0 L 18.609375 -8.890625 L 9.171875 -8.890625 L 7.84375 0 L 0.765625 0 L 8.609375 -48.984375 L 19.875 -48.984375 Z M 10.140625 -15.53125 L 17.5625 -15.53125 L 13.859375 -40.296875 Z M 10.140625 -15.53125 "/></g></g></g><g fill="#000000" fill-opacity="1"><g transform="translate(210.310491, 204.072086)"><g><path d="M 9.65625 -35.46875 L 9.65625 0 L 2.734375 0 L 2.734375 -48.984375 L 12.390625 -48.984375 L 20.296875 -19.65625 L 20.296875 -48.984375 L 27.140625 -48.984375 L 27.140625 0 L 19.234375 0 Z M 9.65625 -35.46875 "/></g></g></g><g fill="#000000" fill-opacity="1"><g transform="translate(240.182041, 204.072086)"><g><path d="M 27.703125 0 L 19.9375 0 L 18.609375 -8.890625 L 9.171875 -8.890625 L 7.84375 0 L 0.765625 0 L 8.609375 -48.984375 L 19.875 -48.984375 Z M 10.140625 -15.53125 L 17.5625 -15.53125 L 13.859375 -40.296875 Z M 10.140625 -15.53125 "/></g></g></g><g fill="#000000" fill-opacity="1"><g transform="translate(268.654459, 204.072086)"><g><path d="M 14.34375 -27.28125 L 25.125 -27.28125 L 25.125 -11.75 C 25.125 -7.789062 24.15625 -4.75 22.21875 -2.625 C 20.28125 -0.5 17.421875 0.5625 13.640625 0.5625 C 9.859375 0.5625 7 -0.5 5.0625 -2.625 C 3.132812 -4.75 2.171875 -7.789062 2.171875 -11.75 L 2.171875 -37.21875 C 2.171875 -41.1875 3.132812 -44.226562 5.0625 -46.34375 C 7 -48.46875 9.859375 -49.53125 13.640625 -49.53125 C 17.421875 -49.53125 20.28125 -48.46875 22.21875 -46.34375 C 24.15625 -44.226562 25.125 -41.1875 25.125 -37.21875 L 25.125 -32.46875 L 17.84375 -32.46875 L 17.84375 -37.71875 C 17.84375 -39.488281 17.476562 -40.734375 16.75 -41.453125 C 16.03125 -42.179688 15.066406 -42.546875 13.859375 -42.546875 C 12.640625 -42.546875 11.664062 -42.179688 10.9375 -41.453125 C 10.21875 -40.734375 9.859375 -39.488281 9.859375 -37.71875 L 9.859375 -11.265625 C 9.859375 -9.492188 10.21875 -8.253906 10.9375 -7.546875 C 11.664062 -6.847656 12.640625 -6.5 13.859375 -6.5 C 15.066406 -6.5 16.03125 -6.847656 16.75 -7.546875 C 17.476562 -8.253906 17.84375 -9.492188 17.84375 -11.265625 L 17.84375 -20.296875 L 14.34375 -20.296875 Z M 14.34375 -27.28125 "/></g></g></g><g fill="#000000" fill-opacity="1"><g transform="translate(295.937609, 204.072086)"><g><path d="M 10.5 -28.34375 L 21.0625 -28.34375 L 21.0625 -21.34375 L 10.5 -21.34375 L 10.5 -7 L 23.796875 -7 L 23.796875 0 L 2.796875 0 L 2.796875 -48.984375 L 23.796875 -48.984375 L 23.796875 -41.984375 L 10.5 -41.984375 Z M 10.5 -28.34375 "/></g></g></g><g fill="#000000" fill-opacity="1"><g transform="translate(321.681706, 204.072086)"><g><path d="M 18.890625 0 C 18.796875 -0.320312 18.703125 -0.625 18.609375 -0.90625 C 18.515625 -1.1875 18.429688 -1.535156 18.359375 -1.953125 C 18.296875 -2.378906 18.25 -2.914062 18.21875 -3.5625 C 18.195312 -4.21875 18.1875 -5.035156 18.1875 -6.015625 L 18.1875 -13.71875 C 18.1875 -16 17.789062 -17.601562 17 -18.53125 C 16.207031 -19.46875 14.925781 -19.9375 13.15625 -19.9375 L 10.5 -19.9375 L 10.5 0 L 2.796875 0 L 2.796875 -48.984375 L 14.40625 -48.984375 C 18.425781 -48.984375 21.332031 -48.046875 23.125 -46.171875 C 24.914062 -44.304688 25.8125 -41.488281 25.8125 -37.71875 L 25.8125 -33.859375 C 25.8125 -28.828125 24.132812 -25.515625 20.78125 -23.921875 C 22.738281 -23.128906 24.078125 -21.835938 24.796875 -20.046875 C 25.523438 -18.253906 25.890625 -16.070312 25.890625 -13.5 L 25.890625 -5.953125 C 25.890625 -4.734375 25.9375 -3.671875 26.03125 -2.765625 C 26.125 -1.859375 26.359375 -0.9375 26.734375 0 Z M 10.5 -41.984375 L 10.5 -26.9375 L 13.5 -26.9375 C 14.945312 -26.9375 16.078125 -27.304688 16.890625 -28.046875 C 17.710938 -28.796875 18.125 -30.148438 18.125 -32.109375 L 18.125 -36.9375 C 18.125 -38.71875 17.804688 -40.003906 17.171875 -40.796875 C 16.546875 -41.585938 15.554688 -41.984375 14.203125 -41.984375 Z M 10.5 -41.984375 "/></g></g></g><g fill="#000000" fill-opacity="1"><g transform="translate(260.173432, 237.48956)"><g><path d="M 7.140625 -25.375 C 9.117188 -25.375 10.53125 -24.90625 11.375 -23.96875 C 12.226562 -23.039062 12.65625 -21.632812 12.65625 -19.75 L 12.65625 -18.5625 C 12.65625 -17.207031 12.4375 -16.113281 12 -15.28125 C 11.5625 -14.445312 10.785156 -13.859375 9.671875 -13.515625 C 10.910156 -13.179688 11.789062 -12.539062 12.3125 -11.59375 C 12.832031 -10.65625 13.09375 -9.484375 13.09375 -8.078125 L 13.09375 -5.9375 C 13.09375 -4.03125 12.617188 -2.5625 11.671875 -1.53125 C 10.734375 -0.507812 9.269531 0 7.28125 0 L 1.453125 0 L 1.453125 -25.375 Z M 6.453125 -14.609375 C 7.585938 -14.609375 8.4375 -14.835938 9 -15.296875 C 9.570312 -15.753906 9.859375 -16.648438 9.859375 -17.984375 L 9.859375 -19.46875 C 9.859375 -20.601562 9.644531 -21.441406 9.21875 -21.984375 C 8.800781 -22.523438 8.082031 -22.796875 7.0625 -22.796875 L 4.28125 -22.796875 L 4.28125 -14.609375 Z M 7.28125 -2.578125 C 9.289062 -2.578125 10.296875 -3.722656 10.296875 -6.015625 L 10.296875 -8.265625 C 10.296875 -9.691406 10.007812 -10.675781 9.4375 -11.21875 C 8.875 -11.757812 7.976562 -12.03125 6.75 -12.03125 L 4.28125 -12.03125 L 4.28125 -2.578125 Z M 7.28125 -2.578125 "/></g></g></g><g fill="#000000" fill-opacity="1"><g transform="translate(274.379511, 237.48956)"><g><path d="M 5.9375 -9.09375 L 0.578125 -25.375 L 3.515625 -25.375 L 7.46875 -12.90625 L 11.453125 -25.375 L 14.140625 -25.375 L 8.734375 -9.09375 L 8.734375 0 L 5.9375 0 Z M 5.9375 -9.09375 "/></g></g></g><g fill="#000000" fill-opacity="1"><g transform="translate(289.101483, 237.48956)"><g/></g></g><g fill="#000000" fill-opacity="1"><g transform="translate(294.729796, 237.48956)"><g><path d="M 8.1875 0 L 4.3125 0 L 0.828125 -25.375 L 3.59375 -25.375 L 6.5625 -3.765625 L 9.390625 -25.34375 L 12.1875 -25.34375 L 14.96875 -3.734375 L 17.828125 -25.375 L 20.296875 -25.375 L 16.859375 0 L 13.125 0 L 10.6875 -17.21875 Z M 8.1875 0 "/></g></g></g><g fill="#000000" fill-opacity="1"><g transform="translate(315.857713, 237.48956)"><g><path d="M 10.46875 -14.140625 L 10.46875 -11.59375 L 4.28125 -11.59375 L 4.28125 -2.578125 L 11.890625 -2.578125 L 11.890625 0 L 1.453125 0 L 1.453125 -25.375 L 11.890625 -25.375 L 11.890625 -22.796875 L 4.28125 -22.796875 L 4.28125 -14.140625 Z M 10.46875 -14.140625 "/></g></g></g><g fill="#000000" fill-opacity="1"><g transform="translate(328.904112, 237.48956)"><g><path d="M 7.140625 -25.375 C 9.117188 -25.375 10.53125 -24.90625 11.375 -23.96875 C 12.226562 -23.039062 12.65625 -21.632812 12.65625 -19.75 L 12.65625 -18.5625 C 12.65625 -17.207031 12.4375 -16.113281 12 -15.28125 C 11.5625 -14.445312 10.785156 -13.859375 9.671875 -13.515625 C 10.910156 -13.179688 11.789062 -12.539062 12.3125 -11.59375 C 12.832031 -10.65625 13.09375 -9.484375 13.09375 -8.078125 L 13.09375 -5.9375 C 13.09375 -4.03125 12.617188 -2.5625 11.671875 -1.53125 C 10.734375 -0.507812 9.269531 0 7.28125 0 L 1.453125 0 L 1.453125 -25.375 Z M 6.453125 -14.609375 C 7.585938 -14.609375 8.4375 -14.835938 9 -15.296875 C 9.570312 -15.753906 9.859375 -16.648438 9.859375 -17.984375 L 9.859375 -19.46875 C 9.859375 -20.601562 9.644531 -21.441406 9.21875 -21.984375 C 8.800781 -22.523438 8.082031 -22.796875 7.0625 -22.796875 L 4.28125 -22.796875 L 4.28125 -14.609375 Z M 7.28125 -2.578125 C 9.289062 -2.578125 10.296875 -3.722656 10.296875 -6.015625 L 10.296875 -8.265625 C 10.296875 -9.691406 10.007812 -10.675781 9.4375 -11.21875 C 8.875 -11.757812 7.976562 -12.03125 6.75 -12.03125 L 4.28125 -12.03125 L 4.28125 -2.578125 Z M 7.28125 -2.578125 "/></g></g></g><g fill="#000000" fill-opacity="1"><g transform="translate(343.110192, 237.48956)"><g><path d="M 4.28125 -25.375 L 4.28125 0 L 1.453125 0 L 1.453125 -25.375 Z M 4.28125 -25.375 "/></g></g></g><g fill="#000000" fill-opacity="1"><g transform="translate(348.837788, 237.48956)"><g/></g></g></svg>