<svg xmlns="http://www.w3.org/2000/svg" xmlns:xlink="http://www.w3.org/1999/xlink" width="500" zoomAndPan="magnify" viewBox="0 0 375 374.999991" height="500" preserveAspectRatio="xMidYMid meet" version="1.0"><defs><clipPath id="0a84d9d932"><path d="M 37.5 51 L 337.5 51 L 337.5 324 L 37.5 324 Z M 37.5 51 " clip-rule="nonzero"/></clipPath></defs><g clip-path="url(#0a84d9d932)"><path fill="#969696" d="M 301.167969 184.382812 L 301.167969 95.613281 C 301.167969 88.699219 298.472656 82.199219 293.582031 77.304688 C 288.761719 72.484375 282.089844 69.722656 275.269531 69.722656 L 240.882812 69.722656 L 240.882812 56.207031 C 240.882812 53.351562 238.566406 51.035156 235.710938 51.035156 C 232.855469 51.035156 230.539062 53.351562 230.539062 56.207031 L 230.539062 69.722656 L 174.570312 69.722656 L 174.570312 56.207031 C 174.570312 53.351562 172.25 51.035156 169.398438 51.035156 C 166.542969 51.035156 164.222656 53.351562 164.222656 56.207031 L 164.222656 69.722656 L 108.253906 69.722656 L 108.253906 56.207031 C 108.253906 53.351562 105.9375 51.035156 103.082031 51.035156 C 100.226562 51.035156 97.910156 53.351562 97.910156 56.207031 L 97.910156 69.722656 L 63.523438 69.722656 C 56.707031 69.722656 50.03125 72.488281 45.210938 77.304688 C 40.320312 82.199219 37.625 88.699219 37.625 95.613281 L 37.625 251.003906 C 37.625 257.921875 40.320312 264.421875 45.210938 269.316406 C 50.03125 274.136719 56.707031 276.898438 63.523438 276.898438 L 193.019531 276.898438 C 204.253906 304.175781 231.09375 323.449219 262.375 323.449219 C 303.730469 323.449219 337.375 289.804688 337.375 248.449219 C 337.375 221.300781 322.832031 197.546875 301.167969 184.382812 Z M 262.375 173.449219 C 253.785156 173.449219 245.558594 174.976562 237.867188 177.644531 L 237.867188 145.671875 L 290.824219 145.671875 L 290.824219 179.085938 C 282.042969 175.472656 272.445312 173.449219 262.375 173.449219 Z M 204.398438 200.941406 L 174.570312 200.941406 L 174.570312 145.671875 L 227.523438 145.671875 L 227.523438 182.09375 C 218.613281 186.792969 210.738281 193.207031 204.398438 200.941406 Z M 111.269531 200.941406 L 111.269531 145.671875 L 164.222656 145.671875 L 164.222656 200.941406 Z M 164.222656 211.285156 L 164.222656 266.554688 L 111.269531 266.554688 L 111.269531 211.285156 Z M 47.96875 145.671875 L 100.925781 145.671875 L 100.925781 200.941406 L 47.96875 200.941406 Z M 52.527344 84.617188 C 55.421875 81.722656 59.425781 80.066406 63.523438 80.066406 L 97.910156 80.066406 L 97.910156 92.785156 C 97.910156 95.640625 100.226562 97.957031 103.082031 97.957031 C 105.9375 97.957031 108.253906 95.640625 108.253906 92.785156 L 108.253906 80.066406 L 164.222656 80.066406 L 164.222656 92.785156 C 164.222656 95.640625 166.542969 97.957031 169.398438 97.957031 C 172.25 97.957031 174.570312 95.640625 174.570312 92.785156 L 174.570312 80.066406 L 230.539062 80.066406 L 230.539062 92.785156 C 230.539062 95.640625 232.855469 97.957031 235.710938 97.957031 C 238.566406 97.957031 240.882812 95.640625 240.882812 92.785156 L 240.882812 80.066406 L 275.269531 80.066406 C 279.367188 80.066406 283.371094 81.726562 286.265625 84.617188 C 289.207031 87.554688 290.824219 91.460938 290.824219 95.613281 L 290.824219 135.328125 L 47.96875 135.328125 L 47.96875 95.613281 C 47.96875 91.460938 49.589844 87.554688 52.527344 84.617188 Z M 52.527344 261.996094 C 49.589844 259.058594 47.96875 255.152344 47.96875 251 L 47.96875 211.28125 L 100.925781 211.28125 L 100.925781 266.546875 L 63.523438 266.546875 C 59.425781 266.546875 55.417969 264.894531 52.527344 261.996094 Z M 174.570312 266.546875 L 174.570312 211.285156 L 197.316406 211.285156 C 191.027344 222.257812 187.375 234.921875 187.375 248.449219 C 187.375 254.703125 188.230469 260.746094 189.675781 266.554688 L 174.570312 266.554688 Z M 262.375 313.097656 C 226.722656 313.097656 197.71875 284.097656 197.71875 248.445312 C 197.71875 212.789062 226.722656 183.789062 262.375 183.789062 C 298.027344 183.789062 327.03125 212.789062 327.03125 248.445312 C 327.03125 284.097656 298.027344 313.097656 262.375 313.097656 Z M 262.375 313.097656 " fill-opacity="1" fill-rule="nonzero"/></g><path fill="#969696" d="M 286.484375 242.492188 L 267.546875 242.492188 L 267.546875 213.058594 C 267.546875 210.199219 265.230469 207.886719 262.375 207.886719 C 259.519531 207.886719 257.203125 210.199219 257.203125 213.058594 L 257.203125 247.664062 C 257.203125 250.523438 259.519531 252.835938 262.375 252.835938 L 286.484375 252.835938 C 289.339844 252.835938 291.65625 250.523438 291.65625 247.664062 C 291.65625 244.804688 289.339844 242.492188 286.484375 242.492188 Z M 286.484375 242.492188 " fill-opacity="1" fill-rule="nonzero"/></svg>