<svg xmlns="http://www.w3.org/2000/svg" xmlns:xlink="http://www.w3.org/1999/xlink" width="500" zoomAndPan="magnify" viewBox="0 0 375 374.999991" height="500" preserveAspectRatio="xMidYMid meet" version="1.0"><defs><clipPath id="14cae0e663"><path d="M 11.628906 75 L 245 75 L 245 274 L 11.628906 274 Z M 11.628906 75 " clip-rule="nonzero"/></clipPath><clipPath id="8d14543f49"><path d="M 170 140 L 363.378906 140 L 363.378906 299 L 170 299 Z M 170 140 " clip-rule="nonzero"/></clipPath></defs><g clip-path="url(#14cae0e663)"><path fill="#969696" d="M 154.40625 220.359375 L 154.40625 156.808594 C 154.40625 140.382812 167.128906 127.0625 182.824219 127.0625 L 244.992188 127.0625 L 244.992188 111.914062 C 244.992188 91.59375 229.242188 75.117188 209.835938 75.117188 L 46.789062 75.117188 C 27.378906 75.117188 11.628906 91.59375 11.628906 111.917969 L 11.628906 190.546875 C 11.628906 210.867188 27.378906 227.347656 46.789062 227.347656 L 73.695312 227.347656 L 73.695312 270.792969 C 73.695312 273.191406 76.984375 274.882812 78.695312 272.871094 C 91.515625 257.695312 104.328125 242.523438 117.152344 227.351562 L 155.226562 227.351562 C 154.707031 225.101562 154.40625 222.773438 154.40625 220.359375 Z M 154.40625 220.359375 " fill-opacity="1" fill-rule="nonzero"/></g><g clip-path="url(#8d14543f49)"><path fill="#969696" d="M 170.539062 167.289062 L 170.539062 238.226562 C 170.539062 253.039062 182.015625 265.054688 196.175781 265.054688 L 263.746094 265.054688 C 273.09375 276.117188 282.433594 287.175781 291.777344 298.238281 C 293.023438 299.714844 295.421875 298.476562 295.421875 296.730469 L 295.421875 265.054688 L 337.734375 265.054688 C 351.890625 265.054688 363.367188 253.039062 363.367188 238.226562 L 363.367188 167.289062 C 363.367188 152.472656 351.890625 140.453125 337.734375 140.453125 L 196.175781 140.453125 C 182.015625 140.453125 170.539062 152.46875 170.539062 167.289062 Z M 170.539062 167.289062 " fill-opacity="1" fill-rule="nonzero"/></g></svg>