<svg xmlns="http://www.w3.org/2000/svg" xmlns:xlink="http://www.w3.org/1999/xlink" width="500" zoomAndPan="magnify" viewBox="0 0 375 374.999991" height="500" preserveAspectRatio="xMidYMid meet" version="1.0"><defs><clipPath id="5a9a3f5dfc"><path d="M 102 31.074219 L 350 31.074219 L 350 198 L 102 198 Z M 102 31.074219 " clip-rule="nonzero"/></clipPath><clipPath id="c535783cb4"><path d="M 8.636719 201 L 357 201 L 357 337.824219 L 8.636719 337.824219 Z M 8.636719 201 " clip-rule="nonzero"/></clipPath></defs><g clip-path="url(#5a9a3f5dfc)"><path fill="#969696" d="M 102.648438 131.378906 L 102.648438 154.070312 C 102.648438 157.300781 105.292969 159.945312 108.523438 159.945312 L 155.960938 159.945312 C 155.664062 162.589844 155.519531 165.304688 155.519531 168.023438 L 155.519531 191.519531 C 155.519531 194.75 158.164062 197.394531 161.394531 197.394531 L 290.628906 197.394531 C 293.859375 197.394531 296.503906 194.75 296.503906 191.519531 L 296.503906 168.023438 C 296.503906 165.304688 296.355469 162.589844 296.0625 159.945312 L 343.5 159.945312 C 346.730469 159.945312 349.375 157.300781 349.375 154.070312 L 349.375 131.378906 C 349.375 109.277344 334.980469 90.554688 315.082031 83.945312 C 320.664062 78.363281 324.039062 70.65625 324.039062 62.136719 C 324.039062 45.027344 310.089844 31.074219 292.980469 31.074219 C 276.238281 31.074219 262.578125 44.367188 261.917969 60.886719 C 257.804688 43.777344 242.386719 31.074219 224.027344 31.074219 C 206.625 31.074219 191.867188 42.457031 186.800781 58.246094 C 184.890625 42.972656 171.820312 31.074219 156.03125 31.074219 C 138.921875 31.074219 124.972656 45.027344 124.972656 62.136719 C 124.972656 71.023438 128.71875 79.097656 134.8125 84.753906 C 116.015625 91.949219 102.648438 110.160156 102.648438 131.378906 Z M 337.625 131.378906 L 337.625 148.195312 L 293.640625 148.195312 C 288.425781 130.425781 276.382812 115.519531 260.523438 106.5625 C 267.71875 98.117188 278.292969 93.125 289.601562 93.125 L 299.441406 93.125 C 320.515625 93.199219 337.625 110.304688 337.625 131.378906 Z M 292.980469 42.824219 C 303.625 42.824219 312.292969 51.488281 312.292969 62.136719 C 312.292969 72.785156 303.625 81.449219 292.980469 81.449219 C 282.332031 81.449219 273.667969 72.785156 273.667969 62.136719 C 273.667969 51.488281 282.332031 42.824219 292.980469 42.824219 Z M 263.09375 70.507812 C 264.636719 76.015625 267.644531 80.933594 271.757812 84.753906 C 263.019531 88.128906 255.308594 93.859375 249.582031 101.566406 C 249.066406 101.347656 248.554688 101.199219 248.039062 101.054688 C 257.070312 93.929688 263.019531 82.917969 263.09375 70.507812 Z M 224.027344 42.824219 C 239.082031 42.824219 251.417969 55.085938 251.417969 70.214844 C 251.417969 85.339844 239.15625 97.601562 224.027344 97.601562 C 208.902344 97.601562 196.640625 85.265625 196.640625 70.214844 C 196.640625 55.160156 208.902344 42.824219 224.027344 42.824219 Z M 226.011719 109.277344 C 258.394531 109.277344 284.753906 135.640625 284.753906 168.023438 L 284.753906 185.644531 L 167.269531 185.644531 L 167.269531 168.023438 C 167.269531 135.640625 193.628906 109.277344 226.011719 109.277344 Z M 185.039062 73.078125 C 185.476562 79.171875 187.3125 84.898438 190.25 89.894531 C 186.507812 87.324219 182.394531 85.339844 178.0625 83.945312 C 181.074219 80.859375 183.496094 77.191406 185.039062 73.078125 Z M 155.960938 42.824219 C 166.605469 42.824219 175.273438 51.488281 175.273438 62.136719 C 175.273438 72.785156 166.605469 81.449219 155.960938 81.449219 C 145.3125 81.449219 136.648438 72.785156 136.648438 62.136719 C 136.648438 51.488281 145.3125 42.824219 155.960938 42.824219 Z M 152.582031 93.199219 L 162.421875 93.199219 C 173.730469 93.199219 184.230469 98.117188 191.5 106.636719 C 175.636719 115.59375 163.597656 130.5 158.382812 148.269531 L 114.398438 148.269531 L 114.398438 131.453125 C 114.398438 110.304688 131.507812 93.199219 152.582031 93.199219 Z M 152.582031 93.199219 " fill-opacity="1" fill-rule="nonzero"/></g><g clip-path="url(#c535783cb4)"><path fill="#969696" d="M 63.292969 201.433594 L 14.535156 201.433594 C 11.304688 201.433594 8.660156 204.074219 8.660156 207.308594 L 8.660156 315.984375 C 8.660156 319.214844 11.304688 321.855469 14.535156 321.855469 L 63.292969 321.855469 C 66.523438 321.855469 69.164062 319.214844 69.164062 315.984375 L 69.164062 306.65625 L 92.664062 306.65625 L 162.347656 328.757812 C 178.136719 334.632812 191.425781 337.496094 204.644531 337.496094 C 217.933594 337.496094 231.226562 334.558594 247.085938 328.6875 C 247.671875 328.464844 248.261719 328.171875 248.773438 327.730469 L 350.839844 244.460938 C 351.136719 244.167969 351.429688 243.875 351.722656 243.582031 C 358.992188 234.550781 358.625 220.746094 350.839844 212.152344 C 343.132812 203.5625 330.722656 202.679688 322.058594 210.171875 L 271.097656 251.363281 C 271.097656 250.851562 271.097656 250.335938 271.097656 249.824219 C 270.875 237.558594 261.257812 227.5 249.582031 227.5 L 192.96875 227.5 C 189.738281 227.5 186.652344 225.589844 184.742188 222.433594 C 184.304688 221.773438 183.789062 221.183594 183.128906 220.671875 C 159.117188 203.269531 128.789062 199.964844 102.136719 211.859375 L 92.296875 216.265625 L 69.164062 216.265625 L 69.164062 207.308594 C 69.164062 204.074219 66.59375 201.433594 63.292969 201.433594 Z M 38.03125 301.296875 C 34.800781 301.296875 32.15625 298.652344 32.15625 295.421875 C 32.15625 292.191406 34.800781 289.546875 38.03125 289.546875 C 41.261719 289.546875 43.90625 292.191406 43.90625 295.421875 C 43.90625 298.652344 41.261719 301.296875 38.03125 301.296875 Z M 57.417969 222.214844 L 57.417969 310.109375 L 47.796875 310.109375 C 52.496094 306.949219 55.65625 301.589844 55.65625 295.421875 C 55.65625 285.730469 47.722656 277.800781 38.03125 277.800781 C 28.339844 277.800781 20.410156 285.730469 20.410156 295.421875 C 20.410156 301.515625 23.566406 306.949219 28.265625 310.109375 L 20.410156 310.109375 L 20.410156 213.179688 L 57.417969 213.179688 Z M 93.617188 228.085938 C 94.425781 228.085938 95.234375 227.941406 95.96875 227.574219 L 106.980469 222.652344 C 129.453125 212.667969 154.929688 215.3125 175.417969 229.628906 C 179.53125 235.722656 185.992188 239.25 193.042969 239.25 L 249.65625 239.25 C 254.941406 239.25 259.347656 244.09375 259.421875 249.96875 C 259.496094 253.273438 258.320312 256.359375 256.191406 258.488281 C 255.164062 259.515625 253.914062 260.324219 252.667969 260.765625 C 250.976562 261.058594 249.289062 261.203125 247.601562 261.203125 L 184.597656 261.203125 C 181.367188 261.203125 178.722656 263.847656 178.722656 267.078125 C 178.722656 270.308594 181.367188 272.953125 184.597656 272.953125 L 250.242188 272.953125 C 252.003906 272.953125 253.769531 272.734375 255.457031 272.292969 C 262.800781 270.96875 269.703125 267.738281 275.796875 262.894531 L 329.695312 219.277344 C 329.765625 219.203125 329.765625 219.203125 329.839844 219.128906 C 333.660156 215.824219 338.871094 216.265625 342.324219 220.011719 C 346.140625 224.195312 346.4375 231.171875 343.058594 235.796875 L 242.3125 318.039062 C 213.820312 328.464844 195.246094 328.320312 166.535156 317.671875 C 166.460938 317.671875 166.386719 317.597656 166.238281 317.597656 L 95.601562 295.128906 C 95.011719 294.980469 94.425781 294.835938 93.839844 294.835938 L 69.164062 294.835938 L 69.164062 228.015625 L 93.617188 228.015625 Z M 93.617188 228.085938 " fill-opacity="1" fill-rule="nonzero"/></g></svg>